<svg id="Layer_1" data-name="Layer 1" xmlns="http://www.w3.org/2000/svg" viewBox="0 0 258.72 144.74"><defs><style>.cls-1{fill:#383838;}.cls-2{fill:#383938;}</style></defs><path class="cls-1" d="M59.9,29.06l1.17-.79,3.37,1.89L64,26.34l1.17-.78,3.12,4.65-.95.63-2.1-3.14.47,3.55-.68.46-3.12-1.78L64,33.07l-.95.64Z"/><path class="cls-1" d="M74.27,27.14l-.87-.8-2.34,1.11.07,1.17L70,29.18l-.2-6.1,1.18-.56,4.56,4ZM71,26.36l1.6-.76L70.87,24Z"/><path class="cls-1" d="M82.31,24.47l-1.45.43-2.2-1.75-.52,1.08.4,1.35-1.22.35-1.57-5.37L77,20.2l.74,2.5,1.49-3.15,1.41-.41L79.23,22Z"/><path class="cls-1" d="M83.61,18.54,87.84,18,88,19l-3,.39.16,1.21,2.67-.36.14,1-2.67.36.16,1.23,3.06-.41.14,1-4.31.57Z"/><path class="cls-1" d="M96,22.38a1.17,1.17,0,0,0,.85.48,1.12,1.12,0,0,0,.92-.21,1.3,1.3,0,0,0,.46-.89l.49-3.25,1.25.18L99.51,22A2.53,2.53,0,0,1,99,23.16a2,2,0,0,1-1,.7A2.72,2.72,0,0,1,96.7,24a2.81,2.81,0,0,1-1.27-.48,2.06,2.06,0,0,1-.73-.95,2.58,2.58,0,0,1-.12-1.31L95.07,18l1.25.18-.49,3.26A1.28,1.28,0,0,0,96,22.38Z"/><path class="cls-1" d="M107.13,21.7a1.79,1.79,0,0,1,0,1.55A2,2,0,0,1,106,24.43a2.36,2.36,0,0,1-1.73-.13l-1-.42-.61,1.48-1.17-.48,2.13-5.18,2.2.9A2.45,2.45,0,0,1,107.13,21.7Zm-1.67,1.69a.91.91,0,0,0,.54-.56.85.85,0,0,0,0-.75,1.2,1.2,0,0,0-.67-.53l-1-.4-.72,1.75,1,.4A1.19,1.19,0,0,0,105.46,23.39Z"/><path class="cls-2" d="M72,66c.81-.67,1.43-1.07,2.19.59a10.25,10.25,0,0,1-1.7,4.66,12.49,12.49,0,0,1-6,4.7,14.88,14.88,0,0,1-4.79.85c-7.49,0-11.52-7.17-11.52-14.83a22,22,0,0,1,1.07-6.81c3.68-10.89,13.58-19.23,22.77-24a43.3,43.3,0,0,1,19-4.8,27.69,27.69,0,0,1,15.19,4c6.64,4.67,9.59,12.28,9.59,20.26,0,13.4-8.42,27.56-21.78,29.35a46.6,46.6,0,0,1-5.69.41c-3.22,12.55-8.11,23.93-19,23.93a20.83,20.83,0,0,1-7.76-1.61c-1-1-1-1.8.59-2.29a12.27,12.27,0,0,0,3.67.54c7.35,0,10.85-7.62,12.77-15.06,2.65-10.17,4.35-23.89,5.07-33.7a7.87,7.87,0,0,0-.41-2.38A1.81,1.81,0,0,1,85,49.1c0-.85.85-1.21,1.74-1.26,5.38-.22,6.41,2.92,6.5,6.19.09,6.54-.85,13.67-2.28,22.4,9.72,0,15.82-11.33,15.82-22.49,0-10.67-5.61-21.11-19-21.11a38.82,38.82,0,0,0-12.33,2.42C65.81,39.06,57.79,46.72,56,57.43A20,20,0,0,0,55.68,61c0,6,2.87,11.61,8.65,11.61a6.91,6.91,0,0,0,1.34-.09,7.25,7.25,0,0,0,4.89-2.91A9.29,9.29,0,0,0,72,66Z"/><path class="cls-2" d="M119,60.57a7.52,7.52,0,0,0,.14-1.25,3.27,3.27,0,0,1,.09-.86c.22-.76,1-.85,1.88-.62,2.46.89,3.58,1.88,3.58,3.58a11.16,11.16,0,0,1-.58,3,110.55,110.55,0,0,0-3.72,16.4c0,.58-.09,1.35-.09,1.84,0,2.1.41,3.49,1.39,3.54,2.51,0,7.71-9.86,10.62-15.42.77-1.43,1.35-2.55,1.8-3.27a1.68,1.68,0,0,1,.67-.22c.45,0,.8.36,1.12.89l-.49.94c-3.5,7.26-10.49,20.8-15.69,20.8-4.17,0-5.51-3.59-5.51-8.07,0-.72,0-1.48.09-2.19.49-5.83,2.24-11.48,4.08-17.12l.62-2.06Zm9-8.52a3.68,3.68,0,0,1-3.72,3.19c-1.44,0-2.69-1.17-2.6-3.63.18-1.93,1.43-4.08,3.13-4.08a2.9,2.9,0,0,1,2.33,1.52A5.41,5.41,0,0,1,127.92,52.05Z"/><path class="cls-2" d="M152.7,47.39c-.72,8-7.31,16.32-13.49,22a62.48,62.48,0,0,0-1.88,10,17.11,17.11,0,0,0-.09,2.1c0,2.87.67,5.11,2.64,5.11,4.88,0,9.81-10.08,12.5-15.64a21.81,21.81,0,0,1,1.71-3.36,1.17,1.17,0,0,1,.71-.22,1.2,1.2,0,0,1,1.08.85l-1.53,3.09h.05c-3.76,8-9.1,19.09-15.69,19.09-5.82,0-7.35-5.47-7.35-10.57a21.31,21.31,0,0,1,.09-2.42v0c.72-8.51,7-36.75,17.53-36.75C152,40.67,152.88,44.84,152.7,47.39ZM140.19,65.54c2.47-2.19,9.73-10.71,10.36-17.52.17-1.52-.05-3.81-1-3.81C147.68,44.21,143.29,53.4,140.19,65.54Z"/><path class="cls-2" d="M175.86,69.08a2.37,2.37,0,0,1-1.12.41,1.23,1.23,0,0,1-.94-.54,8.69,8.69,0,0,0,.41-1.84c.13-3-1.08-6.85-4.35-6.85-6.32,0-13.27,16.26-13.72,21.51-.13,1.7.05,4,2.16,4,3.76,0,8.51-8.56,10.75-13a6.92,6.92,0,0,0,.63-2.64c-.09-.81.85-1,1.75-1.08,3.54.31,4.7,1.75,4.88,3.63s-.63,4.26-.94,6.18c-.22,1.21-1.39,8.25.85,6.23,2.92-2.91,6.63-9.63,9-14.07.68-1.43,1.39-2.82,1.89-3.63a1.77,1.77,0,0,1,.67-.13,1.18,1.18,0,0,1,1.07.85l-.44,1c-2.47,5-7.71,15.64-11.92,19.1A7.88,7.88,0,0,1,171.83,90c-4.26,0-4.62-7-4.17-10a2.74,2.74,0,0,1,.05-.45c-3.23,5.33-7.85,10.62-12.86,10.62-4.71,0-6.23-3.54-6.23-7.62,0-.35,0-.89,0-1.3,1.12-9,9.73-25.14,19.9-25.14,5.24,0,8.24,5.52,7.89,10.49a10.53,10.53,0,0,1-.54,2.42Z"/><path class="cls-2" d="M183.3,99.11a51.7,51.7,0,0,0-14.48-1.88,99.35,99.35,0,0,0-14.43,1.16c-14.2,2.11-28,7.89-32.94,18.69,0,.14-.17.36-.22.54-.31.81-.76,2.15-1.84,2.24s-2-1.61-2.46-3.27a9.89,9.89,0,0,1-.45-3c0-4.93,3.5-9.81,7.48-13.08,6.91-5.11,18.47-7.85,29.22-8.88,2.83-.27,5.83-.36,8.52-.36,8.2,0,15.91,1.17,22.23,4.08a119.73,119.73,0,0,1,7.75-25.45c.49-1.26.9-2.47,1.43-3.72a11.84,11.84,0,0,1-1.39,0c-.44,0-1.25,0-1.7-.09L187,72.31a8.78,8.78,0,0,1-1.92-.49c1-2.06,2.1-4,3.09-6.1-4.39-.22-5.92-3.85-5.6-7.57.36-4.08,3.36-8.6,7.84-8.6,2.51,0,3.68,1.65,3.5,4.61a41,41,0,0,1-2.33,8.52c-.09.18-.09.27-.18.49a14,14,0,0,0,2.42.18c.49,0,1-.05,1.52-.05s1,0,1.39,0a7.82,7.82,0,0,1,2.69.36c.8.36,1.12,1.12,1.12,2.33,0,2.87-2.11,7.89-3.32,10.8-.22.54-.58,1.25-.76,1.79-2.29,6.5-4.93,13.89-6.09,19.85a21.39,21.39,0,0,1,3.49,3.1,7.29,7.29,0,0,1,4.71-7.26,9.65,9.65,0,0,1,3.27-.63c4.3,0,7,3.45,7,7.35,0,4.08-3.85,8.83-11.16,10.48a19,19,0,0,1-2.82.23C188.59,111.66,183.48,107.58,183.3,99.11Zm5.87-36.3c.49-1.07,2.24-5.2,2.47-7.48,0-.63,0-.94-.18-.94-1,0-3.41,3.67-3.63,6.22A1.74,1.74,0,0,0,189.17,62.81Zm5.38,43.52c-.41-1.26-1.62-3-4.44-4.66.31,3.54,2,7.57,6,7a8.61,8.61,0,0,0,7.71-8.24c0-2-.94-3.63-3-3.63a4.67,4.67,0,0,0-1.44.22c-2.06.63-3.85,3-3.85,6a7.26,7.26,0,0,0,.58,2.78l0-.05c.35.68.09.9-.5,1.26s-.89-.14-1.07-.63Z"/><path class="cls-2" d="M183.3,99.11a51.7,51.7,0,0,0-14.48-1.88,99.35,99.35,0,0,0-14.43,1.16c-14.2,2.11-28,7.89-32.94,18.69,0,.14-.17.36-.22.54-.31.81-.76,2.15-1.84,2.24s-2-1.61-2.46-3.27a9.89,9.89,0,0,1-.45-3c0-4.93,3.5-9.81,7.48-13.08,6.91-5.11,18.47-7.85,29.22-8.88,2.83-.27,5.83-.36,8.52-.36,8.2,0,15.91,1.17,22.23,4.08a119.73,119.73,0,0,1,7.75-25.45c.49-1.26.9-2.47,1.43-3.72a11.84,11.84,0,0,1-1.39,0c-.44,0-1.25,0-1.7-.09L187,72.31a8.78,8.78,0,0,1-1.92-.49c1-2.06,2.1-4,3.09-6.1-4.39-.22-5.92-3.85-5.6-7.57.36-4.08,3.36-8.6,7.84-8.6,2.51,0,3.68,1.65,3.5,4.61a41,41,0,0,1-2.33,8.52c-.09.18-.09.27-.18.49a14,14,0,0,0,2.42.18c.49,0,1-.05,1.52-.05s1,0,1.39,0a7.82,7.82,0,0,1,2.69.36c.8.36,1.12,1.12,1.12,2.33,0,2.87-2.11,7.89-3.32,10.8-.22.54-.58,1.25-.76,1.79-2.29,6.5-4.93,13.89-6.09,19.85a21.39,21.39,0,0,1,3.49,3.1,7.29,7.29,0,0,1,4.71-7.26,9.65,9.65,0,0,1,3.27-.63c4.3,0,7,3.45,7,7.35,0,4.08-3.85,8.83-11.16,10.48a19,19,0,0,1-2.82.23C188.59,111.66,183.48,107.58,183.3,99.11Zm5.87-36.3c.49-1.07,2.24-5.2,2.47-7.48,0-.63,0-.94-.18-.94-1,0-3.41,3.67-3.63,6.22A1.74,1.74,0,0,0,189.17,62.81Zm5.38,43.52c-.41-1.26-1.62-3-4.44-4.66.31,3.54,2,7.57,6,7a8.61,8.61,0,0,0,7.71-8.24c0-2-.94-3.63-3-3.63a4.67,4.67,0,0,0-1.44.22c-2.06.63-3.85,3-3.85,6a7.26,7.26,0,0,0,.58,2.78l0-.05c.35.68.09.9-.5,1.26s-.89-.14-1.07-.63Z"/><path class="cls-2" d="M136.18,109.15a2.31,2.31,0,0,1,1.25.15,1.68,1.68,0,0,1,.83.79,1.76,1.76,0,0,1,.18,1.16,1.87,1.87,0,0,1-.61,1,2,2,0,0,1,1.4.07,2.06,2.06,0,0,1,1,1,1.91,1.91,0,0,1,.21,1.23,2.4,2.4,0,0,1-.6,1.2,4.6,4.6,0,0,1-1.34,1L135,118.61l-3.72-7.19,3.41-1.76A4.66,4.66,0,0,1,136.18,109.15Zm.37,2.91a.73.73,0,0,0-.05-.64A.66.66,0,0,0,136,111a1.06,1.06,0,0,0-.7.15l-1.44.74.73,1.4,1.43-.75A1,1,0,0,0,136.55,112.06Zm1.64,2.78a.76.76,0,0,0,0-.73.72.72,0,0,0-.56-.39,1.46,1.46,0,0,0-.88.22l-1.44.74.78,1.51,1.44-.75A1.43,1.43,0,0,0,138.19,114.84Z"/><path class="cls-2" d="M148.3,113l-1.78-1.79h-.05l-1.45.45.66,2.14-2,.62-2.39-7.73,3.48-1.08a3.76,3.76,0,0,1,2.59,0,2.61,2.61,0,0,1,1.47,1.74,3.25,3.25,0,0,1,.11,1.62,2.63,2.63,0,0,1-.72,1.3l2.39,2Zm-3.78-2.94,1.47-.46a1.38,1.38,0,0,0,.86-.6,1.22,1.22,0,0,0,.06-1,1.17,1.17,0,0,0-.61-.76,1.42,1.42,0,0,0-1,0l-1.47.45Z"/><path class="cls-2" d="M151.79,103.81l6.3-1,.27,1.66-4.22.69.25,1.49,3.8-.62.27,1.65-3.8.63.24,1.51,4.33-.71.27,1.67-6.41,1Z"/><path class="cls-2" d="M167.13,110.26l-1.28-2.18h0l-1.52.07.11,2.24-2.12.1-.37-8.09,3.63-.17a3.78,3.78,0,0,1,2.53.63,2.58,2.58,0,0,1,1,2,3.28,3.28,0,0,1-.29,1.6,2.61,2.61,0,0,1-1,1.08l1.81,2.56Zm-2.93-3.79,1.54-.07a1.44,1.44,0,0,0,1-.37,1.2,1.2,0,0,0,.31-1,1.16,1.16,0,0,0-.39-.89,1.47,1.47,0,0,0-1-.27l-1.53.07Z"/><path class="cls-2" d="M178.67,102.87a4.19,4.19,0,0,1,1.24,5.84,4.13,4.13,0,0,1-1.65,1.42,4.86,4.86,0,0,1-4.47-.25,4.08,4.08,0,0,1-1.92-3.79,3.91,3.91,0,0,1,.69-2.08,4,4,0,0,1,1.65-1.4,4.73,4.73,0,0,1,2.26-.42A4.6,4.6,0,0,1,178.67,102.87Zm-3.41,1.36a2.3,2.3,0,0,0-.86.81,2.56,2.56,0,0,0-.37,1.19,2.4,2.4,0,0,0,.24,1.23,2.29,2.29,0,0,0,.76.92,2.14,2.14,0,0,0,1.09.38,2,2,0,0,0,1.12-.26,2.27,2.27,0,0,0,.84-.82,2.68,2.68,0,0,0,.14-2.42,2.25,2.25,0,0,0-.74-.9,2.12,2.12,0,0,0-2.22-.13Z"/></svg>